# xmcd
# Copyright (C) 1995-1998 Ti Kan
#
# Track frame offsets:
#       150
#       9508
#       26100
#       46528
#       57524
#       75117
#       92359
#       107217
#       117079
#       130077
#       147880
#       160052
#       177356
#
# Disc length: 2553 seconds
#
# Revision: 0
# Processed by: cddbd v1.5.2PL0 Copyright (c) Steve Scherf et al.
# Submitted via: CD-Import v1.0
#
DISCID=9509f70d
DTITLE=Sebass - Import Muzika
DYEAR=10
DGENRE=
TTITLE0=Slatko Tango
TTITLE1=Elate Sto Choro
TTITLE2=Makimaki
TTITLE3=Kraijste
TTITLE4=San Oniro
TTITLE5=Bucurije
TTITLE6=Tanija U Temisvar
TTITLE7=Duj Sandale
TTITLE8=Cabaret
TTITLE9=Babaije
TTITLE10=Gökte Yildiz
TTITLE11=Anemeli Emmelia
TTITLE12=Sevicko Kolo
EXTD=
EXTT0=
EXTT1=
EXTT2=
EXTT3=
EXTT4=
EXTT5=
EXTT6=
EXTT7=
EXTT8=
EXTT9=
EXTT10=
EXTT11=
EXTT12=
PLAYORDER=
